# xmcd
#
# Track frame offsets:
#	150
#	16480
#	33030
#	44900
#	60877
#	77865
#	91245
#	108930
#	126445
#	136965
#	152110
#	168760
#	185925
#	202565
#	219785
#	236867
#	254970
#	265937
#	277142
#	295190
#	308460
#
# Disc length: 4422
#
# Revision: 1
# Processed by: cddbd v1.5.1PL0 Copyright (c) Steve Scherf et al.
# Submitted via: VisiTrax 2.9.5.180 - For more info visit www.synapsa.com
# Normalized: r0:DSETVAR1
#
DISCID=2d114415
DTITLE=Various Artist - CDX 104 March 1995
DYEAR=1995
DGENRE=
TTITLE0=George Strait - Adalida
TTITLE1=Billy Montana - Didn't have you
TTITLE2=Kenny Chesney - Fall in love
TTITLE3=Hank Williams Jr. - Hog wild
TTITLE4=Mary Chapin Carpenter - House of cards
TTITLE5=Holly Dunn - I am who I am
TTITLE6=John Michael Montgomery - I can love you like that
TTITLE7=Sawyer Brown - I don't believe in goodbye
TTITLE8=Sammy Kershaw - If you're gonna walk, I'm gonna crawl
TTITLE9=Wade Hayes - I'm still dancin' with you
TTITLE10=Highwaymen - It is what it is
TTITLE11=John and Audrey Wiggins - Memory making night
TTITLE12=Russ Taff - One and only love
TTITLE13=Marty Stuart - The likes of me
TTITLE14=Ricky Lynn Gregg - To find where I belong
TTITLE15=Julio Iglesias - Dolly Parton - When you tell me that you love me
TTITLE16=Ken Mellons - Workin' for the weekend
TTITLE17=Toby Keith - You ain't much fun
TTITLE18=Patty Loveless - You don't even know who I am
TTITLE19=Eddie Adcock Band - Dog
TTITLE20=Various Artist - Comedy
EXTD=
EXTT0=
EXTT1=
EXTT2=
EXTT3=
EXTT4=
EXTT5=
EXTT6=
EXTT7=
EXTT8=
EXTT9=
EXTT10=
EXTT11=
EXTT12=
EXTT13=
EXTT14=
EXTT15=
EXTT16=
EXTT17=
EXTT18=
EXTT19=
EXTT20=
PLAYORDER=
